HIERARCHY
ROOT Hips
{
  OFFSET 90.7885 88.945 -76.2838
  CHANNELS 6 Xposition Yposition Zposition Zrotation Xrotation Yrotation
  JOINT LeftUpLeg
  {
    OFFSET 8.64259 1.95398 -2.38835
    CHANNELS 3 Zrotation Xrotation Yrotation
    JOINT LeftLeg
    {
      OFFSET 43.7702 0 0
      CHANNELS 3 Zrotation Xrotation Yrotation
      JOINT LeftFoot
      {
        OFFSET 40.6238 0 0
        CHANNELS 3 Zrotation Xrotation Yrotation
        JOINT LeftToeBase
        {
          OFFSET 12.7242 0 0
          CHANNELS 3 Zrotation Xrotation Yrotation
          End Site
          {
            OFFSET 0 0 0
          }
        }
      }
    }
  }
  JOINT RightUpLeg
  {
    OFFSET -8.2249 1.95398 -2.59336
    CHANNELS 3 Zrotation Xrotation Yrotation
    JOINT RightLeg
    {
      OFFSET 43.5653 0 0
      CHANNELS 3 Zrotation Xrotation Yrotation
      JOINT RightFoot
      {
        OFFSET 40.6238 0 0
        CHANNELS 3 Zrotation Xrotation Yrotation
        JOINT RightToeBase
        {
          OFFSET 12.7242 0 0
          CHANNELS 3 Zrotation Xrotation Yrotation
          End Site
          {
            OFFSET 0 0 0
          }
        }
      }
    }
  }
  JOINT Spine
  {
    OFFSET 0.165834 0.87714 6.61349
    CHANNELS 3 Zrotation Xrotation Yrotation
    JOINT Spine1
    {
      OFFSET 7.38963 1.71661e-005 0
      CHANNELS 3 Zrotation Xrotation Yrotation
      JOINT Spine2
      {
        OFFSET 11.9445 1.14441e-005 0
        CHANNELS 3 Zrotation Xrotation Yrotation
        JOINT Spine3
        {
          OFFSET 14.7254 4.19617e-005 0
          CHANNELS 3 Zrotation Xrotation Yrotation
          JOINT Spine4
          {
            OFFSET 10.9679 0 0
            CHANNELS 3 Zrotation Xrotation Yrotation
            JOINT RightShoulder
            {
              OFFSET 2.46616 -1.6653 3.69651
              CHANNELS 3 Zrotation Xrotation Yrotation
              JOINT RightArm
              {
                OFFSET 13.0012 0 0
                CHANNELS 3 Zrotation Xrotation Yrotation
                JOINT RightForeArm
                {
                  OFFSET 28.7848 1.52588e-005 0
                  CHANNELS 3 Zrotation Xrotation Yrotation
                  JOINT RightHand
                  {
                    OFFSET 26.5688 1.52588e-005 0
                    CHANNELS 3 Zrotation Xrotation Yrotation
                    End Site
                    {
                      OFFSET 0 0 0
                    }
                  }
                }
              }
            }
            JOINT LeftShoulder
            {
              OFFSET 2.38034 -1.29275 -3.7523
              CHANNELS 3 Zrotation Xrotation Yrotation
              JOINT LeftArm
              {
                OFFSET 16.3182 6.10352e-005 0
                CHANNELS 3 Zrotation Xrotation Yrotation
                JOINT LeftForeArm
                {
                  OFFSET 27.0901 0 0
                  CHANNELS 3 Zrotation Xrotation Yrotation
                  JOINT LeftHand
                  {
                    OFFSET 24.5451 1.52588e-005 0
                    CHANNELS 3 Zrotation Xrotation Yrotation
                    End Site
                    {
                      OFFSET 0 0 0
                    }
                  }
                }
              }
            }
            JOINT Neck
            {
              OFFSET 5.0226 -0.0266342 0
              CHANNELS 3 Zrotation Xrotation Yrotation
              JOINT Head
              {
                OFFSET 6.69363 2.86102e-005 0
                CHANNELS 3 Zrotation Xrotation Yrotation
                End Site
                {
                  OFFSET 0 0 0
                }
              }
            }
          }
        }
      }
    }
  }
}
MOTION
Frames:	7
Frame Time:	0.0416667
-26.2914 82.9582 66.7118 -85.7365 -43.5789 -94.8666 -169.851 48.8088 94.2614 -116.964 7.11961 7.30099 74.0022 7.13204 9.29292 26.8962 6.53528 -8.85309 174.315 7.73146 96.2593 -53.8878 -15.1809 0.277134 112.4 -25.9668 0.533943 1.61087 -2.34476 7.39149 1.64651 7.99787 -90.2603 10.8928 3.15789 -0.815607 -0.774695 3.11895 -0.953922 -23.3408 3.25687 0.172191 -3.32814 3.25688 0.172193 87.643 -25.2711 -113.672 30.6077 13.6298 -41.2499 -34.8091 -3.74782 -106.463 -36.9501 0.774912 -14.2436 -86.3301 -53.2548 84.7177 -19.6131 14.0391 20.0671 66.3538 -28.1042 -96.6743 11.4055 -0.352471 -6.53552 34.9242 0.151983 9.13503 -14.2347 -3.52106 -3.99091 
-30.9888 84.1234 73.5068 -84.6166 -42.2928 -96.1686 -169.782 53.896 91.4805 -108.967 3.88007 6.20009 76.4472 7.83706 7.12331 29.735 5.83166 -8.81659 173.204 -0.0175992 92.034 -47.3089 -16.3245 -1.14313 108.263 -23.7321 0.658027 9.6394 -3.23843 8.38486 2.1684 7.93356 -89.8008 11.014 4.40902 -0.0257217 -0.649427 4.40361 -0.220132 -23.241 4.21253 1.30296 -3.22833 4.21253 1.30296 88.6763 -22.9024 -112.704 33.3107 17.6779 -44.7614 -36.8955 -4.39591 -110.759 -41.4 -0.107482 -11.3665 -85.582 -52.2204 85.6665 -19.2177 13.4948 28.7227 65.31 -30.0437 -97.9205 11.1704 -0.667425 -9.22568 35.0304 -2.83621 7.83062 -14.7378 -5.76788 -3.94057 
-36.7596 86.3457 80.4957 -84.5187 -41.6084 -98.402 -169.649 54.5248 89.1575 -96.7747 1.59216 4.35818 79.2992 8.58806 3.68342 25.3207 7.22871 -9.31622 171.65 -8.30359 88.7855 -39.3322 -21.1372 -3.23075 94.1671 -18.5885 -5.07002 20.4562 -4.09233 9.78148 2.7128 7.93237 -89.2627 10.9952 5.74214 0.919775 -0.6632 5.77703 0.665314 -23.2832 5.19959 2.6073 -3.27055 5.1996 2.60728 90.214 -20.5118 -110.509 36.1631 19.9981 -44.9258 -38.7019 -3.82591 -114.87 -44.5046 -1.40223 -7.91942 -85.4782 -48.2242 85.2687 -20.6276 11.5611 36.1105 64.0034 -30.824 -99.3203 11.2858 -0.662785 -8.96479 34.2273 -6.57312 5.67837 -14.4096 -8.32746 -3.84985 
-42.9997 88.6848 87.599 -85.1599 -41.8079 -101.061 -170.632 52.0701 87.4332 -82.9249 1.11994 2.02365 80.4275 8.47577 -0.330974 22.7798 4.66228 -5.07411 169.972 -14.9632 84.3835 -31.8812 -22.5097 -5.60639 76.803 -9.3286 -6.75988 29.239 -5.14087 12.05 3.09934 7.99543 -88.7913 10.8396 6.72927 1.77557 -0.814673 6.80085 1.4764 -23.4534 5.88387 3.72154 -3.44079 5.88386 3.72152 91.2572 -18.6461 -109.022 38.0032 22.23 -42.34 -36.0462 -4.15604 -117.666 -44.7963 -0.666172 -9.61454 -85.7571 -45.0774 84.3558 -22.6232 10.3519 42.6732 64.2041 -34.3318 -101.461 18.0359 -2.86067 -19.2893 34.3558 -9.65685 4.54881 -15.8858 -10.5392 -5.31536 
-49.1276 90.3618 94.6584 -84.8919 -43.0003 -102.929 -171.875 49.5961 85.4994 -67.8106 5.98487 -0.363554 76.4721 7.35818 1.05564 26.7779 3.04092 -3.94687 168.755 -19.2387 81.9305 -28.0006 -22.166 -7.25425 65.0947 -2.55112 -3.47566 20.2328 -2.92201 7.53745 3.32515 8.00955 -88.3078 10.7761 7.40165 2.68069 -0.875744 7.51239 2.35079 -23.5183 6.25359 4.78687 -3.50563 6.25359 4.78687 92.0707 -16.8551 -107.955 39.314 24.2017 -38.7784 -34.1134 -4.78998 -119.873 -43.6541 -0.0630506 -11.0891 -85.9742 -40.4844 83.2174 -24.3718 8.34062 46.4628 58.8276 -33.3412 -104.396 23.4768 -3.24611 -18.3426 35.3559 -12.5831 3.12774 -18.5805 -12.4593 -6.31517 
-54.875 91.2197 101.488 -84.3112 -44.2306 -103.702 -173.276 46.7543 84.3742 -52.3859 11.1121 -2.40862 73.2983 6.11716 0.338154 30.732 0.412573 -0.990131 168.817 -22.182 81.4787 -28.8697 -20.4786 -8.37458 64.3234 -1.9545 -2.71835 10.7223 -0.156079 3.40611 3.4497 7.98547 -87.9591 10.7926 7.81029 3.33484 -0.858196 7.94942 2.98618 -23.4977 6.44737 5.53297 -3.48504 6.44738 5.53298 92.5546 -15.7601 -107.297 37.9169 23.0312 -35.3034 -35.1376 -3.14123 -119.695 -43.085 -0.167243 -11.0352 -86.5069 -37.8668 81.8038 -24.0449 6.86287 48.7785 62.9914 -34.3346 -102.271 14.3018 -0.801141 -9.21621 34.7806 -14.6415 1.95268 -19.0221 -13.8198 -6.73037 
-60.2167 91.5683 107.978 -83.7056 -46.0969 -102.827 -174.656 44.4408 83.9675 -38.9558 15.8886 -3.64654 68.7275 3.9783 -0.00349727 32.9243 -0.297317 -0.317708 169.588 -24.3802 82.9002 -31.8487 -18.9842 -7.12641 68.5317 -4.45134 -3.92715 13.6049 -1.12522 4.67112 3.399 7.92925 -87.933 10.9043 7.72252 3.38519 -0.747094 7.86392 3.04043 -23.3815 6.34863 5.55417 -3.36886 6.34862 5.55416 93.1114 -15.3725 -106.067 35.4028 17.452 -32.6495 -38.8742 0.165083 -116.563 -43.6675 -1.11757 -8.76372 -87.447 -40.838 80.8172 -19.0128 7.29299 49.3562 60.4702 -35.4797 -104.799 13.9029 -0.871389 -9.82046 33.9244 -15.5065 1.98575 -17.9238 -14.7019 -6.84917 
